<svg xmlns="http://www.w3.org/2000/svg" xmlns:xlink="http://www.w3.org/1999/xlink" width="500" zoomAndPan="magnify" viewBox="0 0 375 374.999991" height="500" preserveAspectRatio="xMidYMid meet" version="1.0"><defs><g/><clipPath id="8c353b3848"><path d="M 17.25 0 L 357.75 0 C 362.324219 0 366.710938 1.816406 369.949219 5.050781 C 373.183594 8.289062 375 12.675781 375 17.25 L 375 357.75 C 375 362.324219 373.183594 366.710938 369.949219 369.949219 C 366.710938 373.183594 362.324219 375 357.75 375 L 17.25 375 C 12.675781 375 8.289062 373.183594 5.050781 369.949219 C 1.816406 366.710938 0 362.324219 0 357.75 L 0 17.25 C 0 7.722656 7.722656 0 17.25 0 Z M 17.25 0 " clip-rule="nonzero"/></clipPath></defs><g clip-path="url(#8c353b3848)"><rect x="-37.5" width="450" fill="#022428" y="-37.499999" height="449.999989" fill-opacity="1"/></g><g fill="#b4dbdc" fill-opacity="1"><g transform="translate(110.286451, 282.499963)"><g><path d="M 75.078125 5.671875 C 55.242188 5.671875 40.085938 2.222656 29.609375 -4.671875 C 19.128906 -11.566406 13.890625 -21.71875 13.890625 -35.125 C 13.890625 -41.925781 16.203125 -47.546875 20.828125 -51.984375 C 25.453125 -56.429688 31.445312 -58.65625 38.8125 -58.65625 C 43.15625 -58.457031 46.457031 -57.367188 48.71875 -55.390625 C 50.988281 -53.410156 52.125 -51.566406 52.125 -49.859375 C 52.125 -49.671875 51.179688 -49.007812 49.296875 -47.875 C 47.410156 -46.75 45.710938 -45.050781 44.203125 -42.78125 C 42.691406 -40.507812 41.9375 -37.394531 41.9375 -33.4375 C 41.9375 -24.550781 44.625 -17.703125 50 -12.890625 C 55.382812 -8.078125 63.742188 -5.671875 75.078125 -5.671875 C 82.828125 -5.671875 89.628906 -7.179688 95.484375 -10.203125 C 101.335938 -13.222656 105.820312 -17.234375 108.9375 -22.234375 C 112.050781 -27.242188 113.609375 -32.488281 113.609375 -37.96875 C 113.609375 -44.769531 111.671875 -50.625 107.796875 -55.53125 C 103.929688 -60.445312 99.164062 -64.554688 93.5 -67.859375 C 87.832031 -71.160156 80.085938 -74.984375 70.265625 -79.328125 C 58.929688 -84.429688 49.769531 -89.0625 42.78125 -93.21875 C 35.789062 -97.375 29.835938 -102.894531 24.921875 -109.78125 C 20.015625 -116.675781 17.5625 -125.226562 17.5625 -135.4375 C 17.5625 -151.863281 23.179688 -164.140625 34.421875 -172.265625 C 45.660156 -180.390625 60.441406 -184.453125 78.765625 -184.453125 C 93.117188 -184.453125 105.628906 -181.425781 116.296875 -175.375 C 126.972656 -169.332031 132.3125 -160.457031 132.3125 -148.75 C 132.3125 -141.945312 130 -136.328125 125.375 -131.890625 C 120.75 -127.453125 114.75 -125.234375 107.375 -125.234375 C 103.03125 -125.421875 99.722656 -126.503906 97.453125 -128.484375 C 95.191406 -130.472656 94.0625 -132.316406 94.0625 -134.015625 C 94.0625 -134.203125 95.335938 -134.863281 97.890625 -136 C 100.441406 -137.132812 102.707031 -138.832031 104.6875 -141.09375 C 106.675781 -143.363281 107.671875 -146.484375 107.671875 -150.453125 C 107.671875 -157.441406 104.976562 -162.914062 99.59375 -166.875 C 94.207031 -170.84375 87.359375 -172.828125 79.046875 -172.828125 C 67.523438 -172.828125 58.789062 -170.132812 52.84375 -164.75 C 46.894531 -159.375 43.921875 -152.71875 43.921875 -144.78125 C 43.921875 -138.164062 45.710938 -132.640625 49.296875 -128.203125 C 52.890625 -123.765625 58.648438 -119.375 66.578125 -115.03125 C 73.003906 -111.632812 79.992188 -108.234375 87.546875 -104.828125 C 99.640625 -99.347656 109.226562 -94.34375 116.3125 -89.8125 C 123.394531 -85.28125 129.34375 -79.332031 134.15625 -71.96875 C 138.96875 -64.601562 141.375 -55.441406 141.375 -44.484375 C 141.375 -35.035156 138.398438 -26.484375 132.453125 -18.828125 C 126.503906 -11.179688 118.476562 -5.1875 108.375 -0.84375 C 98.269531 3.5 87.171875 5.671875 75.078125 5.671875 Z M 75.078125 5.671875 "/></g></g></g></svg>